<?xml version="1.0" encoding="UTF-8"?>
<svg id="Layer_1" data-name="Layer 1" xmlns="http://www.w3.org/2000/svg" viewBox="0 0 1327.28 387.91">
  <defs>
    <style>
      .cls-1 {
        fill: #00ff42;
      }
    </style>
  </defs>
  <path class="cls-1" d="M176.09,115.29V31.07c0-17.16-13.91-31.07-31.07-31.07H31.07C13.91,0,0,13.91,0,31.07v99.62c0,17.16,13.91,31.07,31.07,31.07h71.23c9.62,0,17.41,7.8,17.41,17.41v99.05c0,17.16,13.91,31.07,31.07,31.07h117.74c9.52,0,18.51-4.36,24.41-11.84l173.48-220.11c4.32-5.48,6.67-12.26,6.67-19.24v-27.05c0-17.16-13.91-31.07-31.07-31.07h-119.3c-9.37,0-18.23,4.23-24.13,11.5l-92.73,114.34c-9.94,12.25-29.75,5.22-29.75-10.55Z"/>
  <g>
    <path class="cls-1" d="M611.74,283.86l51.72-141.16h29.51l-65.41,166.72h-32.25l-65.41-166.72h29.81l52.02,141.16Z"/>
    <path class="cls-1" d="M859.38,236.4h-133.25c1.01,16.43,6.64,29.26,16.88,38.49,10.24,9.23,22.67,13.84,37.27,13.84,11.96,0,21.95-2.79,29.97-8.37,8.01-5.58,13.64-13.03,16.88-22.36h29.81c-4.46,16.02-13.39,29.05-26.77,39.09-13.39,10.04-30.02,15.06-49.89,15.06-15.82,0-29.97-3.55-42.44-10.65-12.47-7.1-22.26-17.19-29.36-30.27-7.1-13.08-10.65-28.24-10.65-45.48s3.45-32.35,10.34-45.33c6.89-12.98,16.58-22.97,29.05-29.97,12.47-7,26.82-10.5,43.05-10.5s29.81,3.45,41.98,10.34c12.17,6.9,21.55,16.38,28.14,28.45,6.59,12.07,9.89,25.71,9.89,40.92,0,5.28-.3,10.85-.91,16.73ZM824.7,186.66c-4.67-7.61-11-13.39-19.01-17.34-8.01-3.96-16.88-5.93-26.62-5.93-13.99,0-25.91,4.46-35.75,13.39-9.84,8.93-15.47,21.3-16.89,37.12h105.26c0-10.54-2.33-19.62-7-27.23Z"/>
    <path class="cls-1" d="M939.24,147.56c9.02-5.27,20.03-7.91,33.01-7.91v28.6h-7.3c-31.03,0-46.55,16.84-46.55,50.5v90.66h-27.69v-166.72h27.69v27.08c4.87-9.53,11.81-16.93,20.84-22.21Z"/>
    <path class="cls-1" d="M999.02,110.14c-3.65-3.65-5.48-8.11-5.48-13.39s1.83-9.74,5.48-13.39c3.65-3.65,8.11-5.48,13.39-5.48s9.38,1.83,12.93,5.48c3.55,3.65,5.32,8.11,5.32,13.39s-1.78,9.73-5.32,13.39c-3.55,3.65-7.86,5.48-12.93,5.48s-9.74-1.83-13.39-5.48ZM1025.79,142.7v166.72h-27.69v-166.72h27.69Z"/>
    <path class="cls-1" d="M1106.71,165.51v98.27c0,8.11,1.72,13.84,5.17,17.19,3.45,3.35,9.43,5.02,17.95,5.02h20.38v23.43h-24.95c-15.42,0-26.98-3.55-34.68-10.65-7.71-7.1-11.56-18.76-11.56-34.99v-98.27h-21.6v-22.82h21.6v-41.98h27.69v41.98h43.51v22.82h-43.51Z"/>
    <path class="cls-1" d="M1327.28,142.7l-100.4,245.21h-28.6l32.86-80.32-67.24-164.89h30.73l52.33,135.08,51.72-135.08h28.6Z"/>
  </g>
  <path class="cls-1" d="M44.81,253.48c4.48,2.58,7.98,6.13,10.51,10.66,2.53,4.53,3.8,9.61,3.8,15.25s-1.27,10.76-3.8,15.34c-2.53,4.57-6.03,8.15-10.51,10.73-4.48,2.58-9.54,3.86-15.18,3.86s-10.85-1.28-15.32-3.86-7.98-6.15-10.51-10.73c-2.53-4.57-3.79-9.68-3.79-15.34s1.26-10.73,3.79-15.25c2.53-4.53,6.03-8.08,10.51-10.66s9.59-3.86,15.32-3.86,10.7,1.28,15.18,3.86ZM46.64,296.77c4.32-4.48,6.5-10.26,6.5-17.38s-2.17-12.89-6.5-17.37c-4.34-4.48-10-6.71-17.01-6.71s-12.77,2.23-17,6.71c-4.23,4.48-6.36,10.28-6.36,17.37s2.13,12.9,6.36,17.38c4.23,4.48,9.89,6.71,17,6.71s12.67-2.23,17.01-6.71ZM40.95,279.17c-1.22,1.6-2.9,2.76-5.04,3.43l8.17,12.12-9.19.14-7.01-11.68h-2.48v11.68h-7.59v-31.38h14.02c3.3,0,5.95.88,7.95,2.63,2,1.76,2.99,4.15,2.99,7.15,0,2.34-.61,4.31-1.82,5.92ZM25.4,276.92h5.99c1.07,0,1.97-.3,2.7-.88.74-.58,1.09-1.41,1.09-2.48s-.36-1.88-1.09-2.41c-.72-.53-1.63-.8-2.7-.8h-5.99v6.57Z"/>
</svg>